<?xml version="1.0" encoding="UTF-8"?>
<!DOCTYPE svg PUBLIC "-//W3C//DTD SVG 1.1//EN" "http://www.w3.org/Graphics/SVG/1.1/DTD/svg11.dtd">
<!-- Creator: CorelDRAW 2020 -->
<svg xmlns="http://www.w3.org/2000/svg" xml:space="preserve" width="242.038mm" height="126.204mm" version="1.1" shape-rendering="geometricPrecision" text-rendering="geometricPrecision" image-rendering="optimizeQuality" fill-rule="evenodd" clip-rule="evenodd"
viewBox="0 0 19.4127 10.1221"
 xmlns:xlink="http://www.w3.org/1999/xlink"
 xmlns:xodm="http://www.corel.com/coreldraw/odm/2003">
 <defs>
    <linearGradient id="id0" gradientUnits="userSpaceOnUse" x1="1.0142" y1="10.0585" x2="19.4127" y2="10.0585">
     <stop offset="0" stop-opacity="0" stop-color="#E6E6E6"/>
     <stop offset="1" stop-opacity="0" stop-color="#E6E6E6"/>
    </linearGradient>
    <radialGradient id="id1" gradientUnits="userSpaceOnUse" gradientTransform="matrix(1.00934 -0 -0 0.322217 0 4)" cx="11.6727" cy="5.3156" r="3.8851" fx="11.6727" fy="5.3156">
     <stop offset="0" stop-opacity="1" stop-color="#B3B3B3"/>
     <stop offset="1" stop-opacity="0" stop-color="#E6E6E6"/>
    </radialGradient>
    <linearGradient id="id2" gradientUnits="userSpaceOnUse" x1="10.8663" y1="0.9017" x2="10.8663" y2="5.3156">
     <stop offset="0" stop-opacity="1" stop-color="white"/>
     <stop offset="0.529412" stop-opacity="1" stop-color="#F4F4F4"/>
     <stop offset="1" stop-opacity="1" stop-color="#E6E6E6"/>
    </linearGradient>
    <linearGradient id="id3" gradientUnits="userSpaceOnUse" x1="7.8954" y1="1.3473" x2="16.1503" y2="1.3473">
     <stop offset="0" stop-opacity="1" stop-color="#83B3EF"/>
     <stop offset="1" stop-opacity="1" stop-color="#4239CD"/>
    </linearGradient>
    <linearGradient id="id4" gradientUnits="userSpaceOnUse" x1="6.7494" y1="0.1802" x2="6.7494" y2="5.6976">
     <stop offset="0" stop-opacity="1" stop-color="#F0D47B"/>
     <stop offset="1" stop-opacity="1" stop-color="#C08117"/>
    </linearGradient>
    <linearGradient id="id5" gradientUnits="userSpaceOnUse" x1="6.7494" y1="0.5197" x2="6.7494" y2="5.3581">
     <stop offset="0" stop-opacity="1" stop-color="#C08117"/>
     <stop offset="1" stop-opacity="1" stop-color="#F0D47B"/>
    </linearGradient>
    <linearGradient id="id6" gradientUnits="userSpaceOnUse" x1="12.9035" y1="2.1749" x2="12.9035" y2="2.7903">
     <stop offset="0" stop-opacity="1" stop-color="#E6E6E6"/>
     <stop offset="0.2" stop-opacity="1" stop-color="#EDEDED"/>
     <stop offset="0.501961" stop-opacity="1" stop-color="#F3F3F3"/>
     <stop offset="0.8" stop-opacity="1" stop-color="#EDEDED"/>
     <stop offset="1" stop-opacity="1" stop-color="#E6E6E6"/>
    </linearGradient>
    <linearGradient id="id7" gradientUnits="userSpaceOnUse" x1="12.9035" y1="3.2572" x2="12.9035" y2="3.8726">
     <stop offset="0" stop-opacity="1" stop-color="#E6E6E6"/>
     <stop offset="0.2" stop-opacity="1" stop-color="#EDEDED"/>
     <stop offset="0.501961" stop-opacity="1" stop-color="#F3F3F3"/>
     <stop offset="0.8" stop-opacity="1" stop-color="#EDEDED"/>
     <stop offset="1" stop-opacity="1" stop-color="#E6E6E6"/>
    </linearGradient>
    <linearGradient id="id8" gradientUnits="userSpaceOnUse" x1="10.8663" y1="4.3395" x2="10.8663" y2="4.8275">
     <stop offset="0" stop-opacity="1" stop-color="#7BB6F0"/>
     <stop offset="1" stop-opacity="1" stop-color="#4239CD"/>
    </linearGradient>
    <mask id="id9">
      <linearGradient id="id10" gradientUnits="userSpaceOnUse" x1="32.5965" y1="-6.0915" x2="32.5965" y2="-5.7976">
       <stop offset="0" stop-opacity="0.701961" stop-color="white"/>
       <stop offset="1" stop-opacity="0.101961" stop-color="white"/>
      </linearGradient>
     <rect fill="url(#id10)" x="9.8899" y="4.3393" width="1.9527" height="0.2993"/>
    </mask>
    <linearGradient id="id11" gradientUnits="userSpaceOnUse" x1="32.5965" y1="-6.0915" x2="32.5965" y2="-5.7976">
     <stop offset="0" stop-opacity="1" stop-color="white"/>
     <stop offset="1" stop-opacity="1" stop-color="white"/>
    </linearGradient>
    <linearGradient id="id12" gradientUnits="userSpaceOnUse" x1="3.9837" y1="2.9486" x2="9.5204" y2="2.9486">
     <stop offset="0" stop-opacity="1" stop-color="#82B1EE"/>
     <stop offset="1" stop-opacity="1" stop-color="#4239CD"/>
    </linearGradient>
 </defs>
 <g id="Layer_x0020_1">
  <metadata id="CorelCorpID_0Corel-Layer"/>
  <g id="_1421854624">
   <rect fill="none" width="16.5334" height="6.6209"/>
   <polygon fill="url(#id0)" fill-rule="nonzero" points="1.0142,10.016 19.4127,10.016 19.4127,10.1221 1.0142,10.1221 "/>
   <polygon fill="url(#id1)" fill-rule="nonzero" points="7.4497,3.1723 15.8956,3.1723 15.8956,7.4589 7.4497,7.4589 "/>
   <path fill="url(#id2)" fill-rule="nonzero" stroke="#B3B3B3" stroke-width="0.0212" stroke-miterlimit="2.61313" d="M16.1821 5.1989c0,0.0703 -0.057,0.1273 -0.1273,0.1273l-10.377 0c-0.0703,0 -0.1273,-0.057 -0.1273,-0.1273l0 -4.1593c0,-0.0703 0.057,-0.1273 0.1273,-0.1273l10.377 0c0.0703,0 0.1273,0.057 0.1273,0.1273l0 4.1593z"/>
   <path fill="url(#id3)" fill-rule="nonzero" stroke="black" stroke-width="0.0212" stroke-miterlimit="2.61313" d="M16.1609 1.7611l-8.2549 0 0 -0.7215c0,-0.0703 0.0782,-0.1061 0.1485,-0.1061l8.0003 0c0.0703,0 0.1061,0.0358 0.1061,0.1061l0 0.7215z"/>
   <circle fill="none" fill-rule="nonzero" stroke="white" stroke-width="0.0421" stroke-miterlimit="2.61313" cx="6.7521" cy="2.9486" r="2.7596"/>
   <circle fill="url(#id4)" fill-rule="nonzero" cx="6.7521" cy="2.9486" r="2.7596"/>
   <circle fill="url(#id5)" fill-rule="nonzero" cx="6.7521" cy="2.9486" r="2.4165"/>
   <circle fill="black" fill-rule="nonzero" cx="6.7521" cy="2.9486" r="2.3343"/>
   <path fill="url(#id6)" fill-rule="nonzero" stroke="#CCCCCC" stroke-width="0.0212" stroke-miterlimit="2.61313" d="M15.9062 2.6524c0,0.0703 -0.0784,0.1485 -0.1489,0.1485l-5.7253 0c-0.0705,0 -0.1312,-0.0782 -0.1312,-0.1485l0 -0.3183c0,-0.0703 0.0607,-0.1485 0.1312,-0.1485l5.7253 0c0.0705,0 0.1489,0.0782 0.1489,0.1485l0 0.3183 0 -0z"/>
   <path fill="#E6E6E6" fill-rule="nonzero" stroke="#CCCCCC" stroke-width="0.0212" stroke-miterlimit="2.61313" d="M15.9062 2.6524c0,0.0703 -0.0784,0.1485 -0.1489,0.1485l-0.5301 0 0 -0.6154 0.5301 0c0.0705,0 0.1489,0.0782 0.1489,0.1485l0 0.3183 0 -0z"/>
   <circle fill="gray" fill-rule="nonzero" cx="15.5675" cy="2.4145" r="0.097"/>
   <path fill="gray" fill-rule="nonzero" d="M15.5667 2.5601c-0.1196,0 -0.2016,0.0526 -0.2016,0.0866l0 0.0587 0.4032 0 0 -0.0591c0,-0.034 -0.082,-0.0862 -0.2016,-0.0862l-0 0z"/>
   <path fill="url(#id7)" fill-rule="nonzero" stroke="#CCCCCC" stroke-width="0.0212" stroke-miterlimit="2.61313" d="M15.9062 3.7347c0,0.0703 -0.0784,0.1485 -0.1489,0.1485l-5.7253 0c-0.0705,0 -0.1312,-0.0782 -0.1312,-0.1485l0 -0.3183c0,-0.0703 0.0607,-0.1485 0.1312,-0.1485l5.7253 0c0.0705,0 0.1489,0.0782 0.1489,0.1485l0 0.3183 0 -0z"/>
   <path fill="#E6E6E6" fill-rule="nonzero" stroke="#CCCCCC" stroke-width="0.0212" stroke-miterlimit="2.61313" d="M15.9062 3.7347c0,0.0703 -0.0784,0.1485 -0.1489,0.1485l-0.5301 0 0 -0.6154 0.5301 0c0.0705,0 0.1489,0.0782 0.1489,0.1485l0 0.3183 0 -0z"/>
   <path fill="gray" fill-rule="nonzero" d="M15.7472 3.5543l-0.0638 0 0 -0.0551c0,-0.045 -0.0137,-0.1066 -0.1167,-0.107 -0.103,-0.0004 -0.1167,0.062 -0.1167,0.107l-0 0.0551 -0.0614 0c-0.0114,0 -0.0235,0.0085 -0.0235,0.0205l0 0.2089c0,0.012 0.0122,0.0252 0.0235,0.0252l0.3586 0c0.0113,0 0.0211,-0.0133 0.0211,-0.0252l0 -0.2089c0,-0.012 -0.0098,-0.0205 -0.0211,-0.0205l-0 0zm-0.2004 0.191l0.0112 -0.0656c-0.0071,-0.0043 -0.012,-0.0135 -0.012,-0.0227 0,-0.0139 0.0107,-0.0246 0.0239,-0.0246 0.0132,0 0.0239,0.0119 0.0239,0.0257 0,0.0087 -0.0042,0.0161 -0.0105,0.0206l0.0114 0.0666 -0.048 0 0 -0zm0.0942 -0.191l-0.1485 0 0 -0.0563c0,-0.0295 0.0099,-0.0641 0.0742,-0.0672 0.063,0.003 0.0744,0.0377 0.0744,0.0672l0 0.0563z"/>
   <path fill="url(#id8)" fill-rule="nonzero" d="M11.8424 4.7002c0,0.0703 -0.057,0.1273 -0.1273,0.1273l-1.6977 0c-0.0703,0 -0.1273,-0.057 -0.1273,-0.1273l0 -0.2334c0,-0.0703 0.057,-0.1273 0.1273,-0.1273l1.6977 0c0.0703,0 0.1273,0.057 0.1273,0.1273l0 0.2334z"/>
   <path fill="url(#id11)" fill-rule="nonzero" mask="url(#id9)" d="M9.8901 4.465c0,-0.0703 0.057,-0.1255 0.1273,-0.1255l1.6977 0c0.0703,0 0.1273,0.0552 0.1273,0.1255 0,0 0,0.17 -0.9762,0.1733 -0.9761,0.0033 -0.9761,-0.1733 -0.9761,-0.1733l-0 0z"/>
   <path fill="white" fill-rule="nonzero" fill-opacity="0.200000" d="M16.1715 1.2837l-7.1922 0c0,0 -0.0786,-0.1041 -0.1595,-0.1963 -0.0794,-0.0904 -0.1622,-0.1645 -0.1622,-0.1645l7.3972 0c0.0703,0 0.1167,0.0464 0.1167,0.1167l0 0.244z"/>
   <path fill="white" fill-rule="nonzero" fill-opacity="0.301961" d="M15.1564 1.7717l-3.1124 0c0,0 0.3678,-0.1415 0.7109,-0.3714 0.3619,-0.2425 0.4881,-0.4775 0.4881,-0.4775l2.8118 0c0.054,0 0.0965,0.0275 0.1111,0.0769 0.0021,0.007 -0.311,0.1053 -0.5532,0.2812 -0.2664,0.1934 -0.4562,0.4907 -0.4562,0.4907l0 0z"/>
   <circle fill="white" stroke="black" stroke-width="0.0141" stroke-miterlimit="2.61313" cx="6.7521" cy="2.9486" r="2.4911"/>
   <path fill="url(#id12)" d="M6.7521 0.1802c1.5289,0 2.7684,1.2394 2.7684,2.7684 0,1.5289 -1.2394,2.7684 -2.7684,2.7684 -1.5289,0 -2.7684,-1.2394 -2.7684,-2.7684 0,-1.5289 1.2394,-2.7684 2.7684,-2.7684zm0 0.5356c1.2331,0 2.2327,0.9996 2.2327,2.2327 0,1.2331 -0.9996,2.2327 -2.2327,2.2327 -1.2331,0 -2.2327,-0.9996 -2.2327,-2.2327 0,-1.2331 0.9996,-2.2327 2.2327,-2.2327z"/>
   <path fill="white" fill-opacity="0.301961" d="M6.5328 0.1802c1.112,0 2.0134,0.884 2.0134,1.9744 0,1.0904 -0.9014,1.9744 -2.0134,1.9744 -1.112,0 -2.0134,-0.884 -2.0134,-1.9744 0,-1.0904 0.9014,-1.9744 2.0134,-1.9744zm0 0.382c0.8968,0 1.6239,0.7129 1.6239,1.5924 0,0.8795 -0.727,1.5924 -1.6239,1.5924 -0.8968,0 -1.6239,-0.7129 -1.6239,-1.5924 0,-0.8795 0.727,-1.5924 1.6239,-1.5924z"/>
   <path fill="white" fill-opacity="0.301961" d="M6.7521 4.5024c0.7739,0 1.4013,0.4197 1.4013,0.9373 0,0.5177 -0.6274,0.9373 -1.4013,0.9373 -0.7739,0 -1.4013,-0.4197 -1.4013,-0.9373 0,-0.5177 0.6274,-0.9373 1.4013,-0.9373zm0 0.1814c0.6242,0 1.1302,0.3385 1.1302,0.756 0,0.4175 -0.506,0.756 -1.1302,0.756 -0.6242,0 -1.1302,-0.3385 -1.1302,-0.756 0,-0.4175 0.506,-0.756 1.1302,-0.756z"/>
   <g>
    <path fill="#D2D3D5" fill-rule="nonzero" d="M8.2067 3.0212c0.0051,0.6697 -0.5336,1.2167 -1.2033,1.2218 -0.6696,0.0051 -1.2167,-0.5336 -1.2218,-1.2033 -0.0051,-0.6697 0.5336,-1.2167 1.2034,-1.2218 0.6697,-0.0051 1.2167,0.5336 1.2218,1.2033z"/>
    <path fill="#0072F6" fill-rule="nonzero" d="M5.3009 3.0291c0,0 -0.1432,-1.3616 1.4057,-1.543 0,0 0.3344,-0.0057 0.2753,0.4406 -0.0591,0.4463 -0.7102,1.428 -0.5265,1.8177 0.1837,0.3897 1.0221,0.0484 1.2921,0.0971 0,0 0.1293,0.0124 0.0493,0.125 -0.08,0.1126 -0.7562,0.7034 -1.6083,0.3129 -0.8521,-0.3905 -0.8457,-1.0271 -0.8875,-1.2503z"/>
    <path fill="#0072F6" fill-rule="nonzero" d="M7.6476 2.9697c-0.0174,0.0351 -0.0451,0.0564 -0.0843,0.0633 -0.029,0.0051 -0.0582,0.007 -0.0873,0.0072 -0.0848,0.0003 -0.1696,0.0004 -0.2544,0.0004l0.0899 -0.2211c0.0938,0 0.1876,0 0.2814,0 0.0095,0 0.0191,-0.0002 0.0285,0.001 0.0247,0.0032 0.0422,0.0198 0.0459,0.0427 0.0048,0.0008 -0.008,0.0828 -0.0197,0.1066zm0.4004 -0.2795c-0.0023,-0.0264 -0.0328,-0.0974 -0.1601,-0.0974 -0.0836,0.0004 -0.1672,0.0001 -0.2507,0.0001 -0.2368,0 -0.4736,0 -0.7104,0 -0.0117,0 -0.0235,-0.0001 -0.0352,0.0001 -0.0071,0.0001 -0.0072,0.0004 -0.0097,0.0112l0.0001 0.0004c0.0031,0.0023 0.0047,0.0052 0.0041,0.0091 0.0105,0.0226 0.0209,0.0452 0.0315,0.0677 0.0189,0.0405 0.0382,0.0807 0.0603,0.1196 0.012,0.0211 0.0096,0.0183 0.0326,0.0183l-0.0952 0.2334c-0.0093,0.0215 -0.0183,0.0432 -0.0273,0.0648 -0.0194,0.0467 -0.0387,0.0934 -0.058,0.1401 -0.0064,0.0156 -0.0132,0.031 -0.0192,0.0468 -0.0098,0.0253 -0.0183,0.051 -0.0287,0.076 -0.0236,0.0561 -0.1515,0.3257 -0.15,0.3305 0.0018,0.0056 0.0184,0.0045 0.0221,0.0045 0.0961,0 0.1923,0 0.2885,0 0.0044,0 0.0088,-0.0002 0.0132,-0.0001 0.0068,0.0002 0.011,-0.0032 0.0138,-0.009 0.0019,-0.0039 0.0038,-0.0079 0.0055,-0.012 0.0434,-0.1003 0.0862,-0.2008 0.1235,-0.3036 0.013,-0.0358 0.0283,-0.0709 0.0441,-0.1055 0.0141,-0.0309 0.0121,-0.0262 0.0409,-0.0262 0.1424,-0.0002 0.2848,-0.0002 0.4272,0 0.0338,0 0.0675,-0.0018 0.1007,-0.0079 0.0623,-0.0114 0.1174,-0.037 0.1609,-0.0841 0.0129,-0.014 0.0264,-0.0277 0.034,-0.0457 0.0125,-0.0298 0.0249,-0.0596 0.0376,-0.0892 0.0055,-0.0127 0.0092,-0.0262 0.0177,-0.0375 0.0126,-0.0319 0.0252,-0.0638 0.0376,-0.0958 0.0161,-0.0415 0.032,-0.0831 0.0441,-0.1261 0.0077,-0.0273 0.0069,-0.0547 0.0045,-0.0825z"/>
   </g>
  </g>
 </g>
</svg>
