<?xml version="1.0" encoding="UTF-8"?>
<!DOCTYPE svg PUBLIC "-//W3C//DTD SVG 1.1//EN" "http://www.w3.org/Graphics/SVG/1.1/DTD/svg11.dtd">
<!-- Creator: CorelDRAW 2020 -->
<svg xmlns="http://www.w3.org/2000/svg" xml:space="preserve" width="14.2222in" height="10.1806in" version="1.1" style="shape-rendering:geometricPrecision; text-rendering:geometricPrecision; image-rendering:optimizeQuality; fill-rule:evenodd; clip-rule:evenodd"
viewBox="0 0 4106.64 2939.62"
 xmlns:xlink="http://www.w3.org/1999/xlink"
 xmlns:xodm="http://www.corel.com/coreldraw/odm/2003">
 <defs>
  <style type="text/css">
   <![CDATA[
    .fil1 {fill:none}
    .fil2 {fill:#BBBBBA}
    .fil0 {fill:white}
    .fil4 {fill:#838383;fill-rule:nonzero}
    .fil3 {fill:url(#id3)}
   ]]>
  </style>
    <clipPath id="id0">
     <rect x="1243.61" y="1200.51" width="342.61" height="430.31"/>
    </clipPath>
    <clipPath id="id1">
     <rect x="2016.05" y="1326.86" width="1142.96" height="120.31"/>
    </clipPath>
    <clipPath id="id2">
     <rect x="2011.74" y="1539.48" width="1144.47" height="125.58"/>
    </clipPath>
  <linearGradient id="id3" gradientUnits="userSpaceOnUse" x1="895.37" y1="1469.81" x2="1952.51" y2="1469.81">
   <stop offset="0" style="stop-opacity:1; stop-color:black"/>
   <stop offset="1" style="stop-opacity:1; stop-color:white"/>
  </linearGradient>
 </defs>
 <g id="Layer_x0020_1">
  <metadata id="CorelCorpID_0Corel-Layer"/>
  <g id="_1260539376">
   <polygon class="fil0" points="495.28,711.84 3611.36,711.84 3611.36,2227.77 495.28,2227.77 "/>
   <polygon class="fil1" points="-0,0 4106.64,0 4106.64,2939.62 -0,2939.62 "/>
   <path class="fil2" d="M3211.27 1245.04l-1330.94 0 -123.32 -171.46 1420.15 0c18.76,0 34.1,16.2 34.1,36l0 135.45z"/>
   <path class="fil3" d="M1423.94 941.24c291.92,0 528.57,236.65 528.57,528.57 0,291.92 -236.65,528.57 -528.57,528.57 -291.92,0 -528.57,-236.65 -528.57,-528.57 0,-291.92 236.65,-528.57 528.57,-528.57zm0 102.27c235.44,0 426.3,190.86 426.3,426.3 0,235.44 -190.86,426.3 -426.3,426.3 -235.44,0 -426.3,-190.86 -426.3,-426.3 0,-235.44 190.86,-426.3 426.3,-426.3z"/>
   <g style="clip-path:url(#id0)">
    <image x="1243.61" y="1200.51" width="342.6" height="430.31" xlink:href="login_Images\login_ImgID1.jpg"/>
   </g>
   <path class="fil4" d="M1259.46 1743.02c0,0.3 -0.1,0.59 -0.3,0.85 -0.21,0.24 -0.55,0.45 -1.01,0.61 -0.46,0.14 -1.09,0.27 -1.88,0.37 -0.77,0.1 -1.76,0.14 -2.94,0.14 -1.22,0 -2.23,-0.05 -3.03,-0.14 -0.8,-0.1 -1.41,-0.23 -1.88,-0.37 -0.45,-0.16 -0.77,-0.37 -0.98,-0.61 -0.21,-0.26 -0.31,-0.55 -0.31,-0.85l0 -24.59 -22.81 0 0 24.59c0,0.3 -0.1,0.59 -0.29,0.85 -0.18,0.24 -0.51,0.45 -0.98,0.61 -0.47,0.14 -1.09,0.27 -1.88,0.37 -0.77,0.1 -1.78,0.14 -2.98,0.14 -1.19,0 -2.18,-0.05 -2.98,-0.14 -0.8,-0.1 -1.43,-0.23 -1.89,-0.37 -0.46,-0.16 -0.8,-0.37 -1.01,-0.61 -0.21,-0.26 -0.3,-0.55 -0.3,-0.85l0 -57.46c0,-0.3 0.1,-0.59 0.3,-0.85 0.21,-0.24 0.55,-0.45 1.01,-0.61 0.46,-0.16 1.09,-0.27 1.89,-0.37 0.8,-0.1 1.8,-0.14 2.98,-0.14 1.2,0 2.21,0.05 2.98,0.14 0.79,0.1 1.41,0.23 1.88,0.37 0.46,0.16 0.8,0.37 0.98,0.61 0.19,0.26 0.29,0.55 0.29,0.85l0 22.38 22.81 0 0 -22.38c0,-0.3 0.1,-0.59 0.31,-0.85 0.21,-0.24 0.53,-0.45 0.98,-0.61 0.47,-0.14 1.08,-0.27 1.88,-0.37 0.8,-0.1 1.81,-0.14 3.03,-0.14 1.17,0 2.17,0.05 2.94,0.14 0.79,0.1 1.41,0.21 1.88,0.37 0.46,0.16 0.8,0.37 1.01,0.61 0.21,0.26 0.3,0.55 0.3,0.85l0 57.46zm58.41 0.1c0,0.34 -0.06,0.63 -0.19,0.87 -0.13,0.24 -0.42,0.43 -0.88,0.59 -0.48,0.14 -1.15,0.26 -2.07,0.32 -0.91,0.06 -2.15,0.1 -3.71,0.1 -1.32,0 -2.36,-0.03 -3.14,-0.1 -0.79,-0.06 -1.41,-0.18 -1.86,-0.35 -0.45,-0.18 -0.77,-0.39 -0.96,-0.66 -0.18,-0.27 -0.34,-0.59 -0.46,-0.96l-5.49 -13.62c-0.66,-1.54 -1.3,-2.92 -1.93,-4.11 -0.63,-1.2 -1.33,-2.2 -2.1,-3 -0.77,-0.8 -1.67,-1.4 -2.68,-1.81 -0.99,-0.4 -2.17,-0.61 -3.48,-0.61l-3.87 0 0 23.24c0,0.3 -0.1,0.59 -0.3,0.83 -0.21,0.26 -0.54,0.46 -1.01,0.63 -0.46,0.14 -1.09,0.27 -1.88,0.37 -0.77,0.1 -1.78,0.14 -2.98,0.14 -1.19,0 -2.18,-0.05 -2.98,-0.14 -0.8,-0.1 -1.43,-0.23 -1.89,-0.37 -0.46,-0.16 -0.8,-0.37 -0.98,-0.61 -0.19,-0.26 -0.29,-0.55 -0.29,-0.85l0 -55.25c0,-1.38 0.35,-2.37 1.06,-2.98 0.71,-0.61 1.57,-0.92 2.6,-0.92l15.75 0c1.59,0 2.92,0.03 3.95,0.1 1.03,0.06 1.97,0.14 2.82,0.23 2.44,0.35 4.64,0.95 6.59,1.8 1.96,0.83 3.63,1.94 4.99,3.3 1.36,1.36 2.41,2.97 3.13,4.83 0.72,1.86 1.08,3.99 1.08,6.42 0,2.02 -0.26,3.88 -0.77,5.55 -0.53,1.68 -1.28,3.18 -2.29,4.49 -0.99,1.32 -2.23,2.45 -3.71,3.42 -1.48,0.98 -3.16,1.75 -5.04,2.36 0.91,0.43 1.76,0.96 2.57,1.59 0.8,0.63 1.56,1.39 2.26,2.29 0.71,0.9 1.38,1.91 2.01,3.06 0.63,1.14 1.24,2.44 1.83,3.88l5.15 12.01c0.46,1.19 0.79,2.05 0.93,2.61 0.16,0.55 0.24,0.98 0.24,1.3zm-15.98 -41.31c0,-2.01 -0.45,-3.71 -1.36,-5.07 -0.92,-1.38 -2.41,-2.36 -4.48,-2.92 -0.63,-0.16 -1.33,-0.27 -2.13,-0.37 -0.8,-0.1 -1.91,-0.14 -3.32,-0.14l-5.55 0 0 17.23 6.3 0c1.76,0 3.29,-0.21 4.6,-0.64 1.33,-0.42 2.42,-1.01 3.3,-1.78 0.88,-0.75 1.54,-1.68 1.97,-2.74 0.43,-1.06 0.66,-2.25 0.66,-3.56zm71.32 -16.62c0,0.91 -0.03,1.64 -0.1,2.2 -0.06,0.55 -0.16,0.98 -0.27,1.27 -0.13,0.3 -0.27,0.5 -0.43,0.61 -0.14,0.11 -0.32,0.16 -0.51,0.16 -0.23,0 -0.46,-0.05 -0.72,-0.16 -0.27,-0.11 -0.59,-0.23 -0.99,-0.35 -0.39,-0.13 -0.85,-0.24 -1.38,-0.35 -0.53,-0.11 -1.15,-0.16 -1.88,-0.16 -0.83,0 -1.57,0.13 -2.18,0.4 -0.61,0.26 -1.12,0.69 -1.52,1.27 -0.4,0.58 -0.71,1.33 -0.88,2.25 -0.19,0.93 -0.29,2.05 -0.29,3.4l0 3.85 7.68 0c0.29,0 0.55,0.08 0.79,0.24 0.24,0.16 0.43,0.42 0.59,0.77 0.14,0.37 0.27,0.87 0.35,1.49 0.08,0.63 0.11,1.39 0.11,2.31 0,1.73 -0.16,2.97 -0.46,3.7 -0.32,0.74 -0.77,1.11 -1.38,1.11l-7.68 0 0 33.93c0,0.3 -0.1,0.58 -0.29,0.82 -0.18,0.24 -0.5,0.43 -0.93,0.59 -0.45,0.14 -1.06,0.27 -1.84,0.35 -0.79,0.08 -1.75,0.11 -2.87,0.11 -1.14,0 -2.09,-0.03 -2.86,-0.11 -0.77,-0.08 -1.4,-0.21 -1.85,-0.35 -0.45,-0.16 -0.77,-0.35 -0.95,-0.59 -0.18,-0.24 -0.26,-0.51 -0.26,-0.82l0 -33.93 -5.25 0c-0.59,0 -1.04,-0.37 -1.33,-1.11 -0.3,-0.74 -0.45,-1.97 -0.45,-3.7 0,-0.92 0.03,-1.68 0.11,-2.31 0.08,-0.63 0.19,-1.12 0.34,-1.49 0.14,-0.35 0.32,-0.61 0.56,-0.77 0.23,-0.16 0.5,-0.24 0.82,-0.24l5.2 0 0 -3.53c0,-2.86 0.29,-5.36 0.85,-7.51 0.56,-2.13 1.44,-3.93 2.65,-5.36 1.22,-1.43 2.76,-2.5 4.62,-3.23 1.86,-0.72 4.07,-1.07 6.61,-1.07 1.22,0 2.37,0.1 3.48,0.3 1.09,0.21 1.96,0.43 2.58,0.66 0.63,0.24 1.06,0.47 1.27,0.66 0.22,0.21 0.4,0.51 0.54,0.9 0.14,0.4 0.24,0.9 0.3,1.51 0.06,0.63 0.1,1.38 0.1,2.29zm46.14 36.53c0,3.56 -0.46,6.82 -1.41,9.77 -0.95,2.94 -2.36,5.47 -4.28,7.6 -1.91,2.13 -4.3,3.77 -7.19,4.94 -2.89,1.15 -6.26,1.73 -10.11,1.73 -3.74,0 -6.98,-0.51 -9.74,-1.56 -2.76,-1.03 -5.05,-2.54 -6.87,-4.51 -1.81,-1.97 -3.16,-4.39 -4.04,-7.28 -0.88,-2.87 -1.32,-6.16 -1.32,-9.87 0,-3.56 0.48,-6.83 1.43,-9.78 0.96,-2.97 2.39,-5.5 4.32,-7.62 1.91,-2.1 4.3,-3.74 7.17,-4.91 2.86,-1.15 6.22,-1.73 10.07,-1.73 3.77,0 7.03,0.51 9.78,1.52 2.76,1.03 5.04,2.52 6.83,4.49 1.81,1.97 3.14,4.39 4.03,7.28 0.88,2.87 1.32,6.18 1.32,9.91zm-12.13 0.46c0,-2.07 -0.16,-3.98 -0.5,-5.71 -0.34,-1.75 -0.88,-3.26 -1.68,-4.54 -0.79,-1.28 -1.83,-2.29 -3.13,-3.02 -1.32,-0.72 -2.95,-1.07 -4.94,-1.07 -1.76,0 -3.3,0.32 -4.64,0.96 -1.32,0.64 -2.41,1.59 -3.26,2.82 -0.85,1.23 -1.49,2.73 -1.91,4.46 -0.43,1.75 -0.64,3.72 -0.64,5.95 0,2.07 0.18,3.98 0.51,5.71 0.35,1.75 0.91,3.26 1.68,4.54 0.77,1.28 1.81,2.28 3.14,2.98 1.32,0.71 2.95,1.06 4.91,1.06 1.8,0 3.35,-0.32 4.68,-0.96 1.32,-0.64 2.41,-1.57 3.26,-2.79 0.85,-1.24 1.48,-2.71 1.89,-4.44 0.4,-1.75 0.61,-3.72 0.61,-5.95zm48.48 -17.12c0,1.12 -0.03,2.05 -0.1,2.78 -0.06,0.72 -0.16,1.28 -0.27,1.68 -0.13,0.4 -0.31,0.69 -0.5,0.85 -0.21,0.16 -0.46,0.23 -0.79,0.23 -0.24,0 -0.53,-0.05 -0.85,-0.16 -0.3,-0.11 -0.66,-0.23 -1.06,-0.35 -0.38,-0.13 -0.82,-0.24 -1.28,-0.35 -0.48,-0.11 -0.99,-0.16 -1.56,-0.16 -0.66,0 -1.32,0.13 -1.97,0.4 -0.66,0.27 -1.35,0.67 -2.05,1.25 -0.71,0.56 -1.44,1.32 -2.21,2.25 -0.77,0.95 -1.59,2.1 -2.47,3.48l0 26.16c0,0.3 -0.1,0.58 -0.29,0.82 -0.18,0.24 -0.5,0.43 -0.96,0.59 -0.45,0.14 -1.06,0.27 -1.8,0.35 -0.75,0.08 -1.72,0.11 -2.87,0.11 -1.15,0 -2.12,-0.03 -2.87,-0.11 -0.74,-0.08 -1.35,-0.21 -1.8,-0.35 -0.46,-0.16 -0.79,-0.35 -0.96,-0.59 -0.19,-0.24 -0.29,-0.51 -0.29,-0.82l0 -41.97c0,-0.3 0.08,-0.58 0.24,-0.82 0.14,-0.24 0.43,-0.43 0.83,-0.59 0.42,-0.14 0.93,-0.27 1.57,-0.35 0.64,-0.08 1.46,-0.11 2.42,-0.11 1.01,0 1.83,0.03 2.49,0.11 0.66,0.08 1.17,0.21 1.54,0.35 0.35,0.16 0.61,0.35 0.77,0.59 0.16,0.24 0.24,0.51 0.24,0.82l0 5.23c1.09,-1.57 2.13,-2.85 3.1,-3.87 0.98,-1.01 1.91,-1.83 2.77,-2.42 0.88,-0.59 1.76,-1.01 2.65,-1.24 0.87,-0.24 1.75,-0.35 2.63,-0.35 0.4,0 0.85,0.02 1.32,0.06 0.46,0.05 0.96,0.13 1.46,0.24 0.5,0.11 0.95,0.24 1.32,0.37 0.39,0.14 0.66,0.29 0.83,0.45 0.16,0.16 0.29,0.34 0.37,0.51 0.08,0.19 0.14,0.45 0.21,0.79 0.06,0.32 0.11,0.82 0.14,1.48 0.03,0.66 0.05,1.54 0.05,2.66zm79.5 35.04c0.37,1.12 0.61,2.02 0.71,2.68 0.1,0.66 -0.03,1.15 -0.37,1.49 -0.35,0.32 -0.96,0.53 -1.85,0.61 -0.87,0.08 -2.09,0.11 -3.61,0.11 -1.6,0 -2.86,-0.02 -3.74,-0.06 -0.9,-0.05 -1.57,-0.14 -2.05,-0.29 -0.47,-0.14 -0.79,-0.34 -0.98,-0.59 -0.19,-0.24 -0.35,-0.58 -0.46,-0.98l-3.99 -12.22 -22.94 0 -3.83 11.89c-0.13,0.45 -0.29,0.82 -0.5,1.11 -0.19,0.3 -0.53,0.53 -0.98,0.71 -0.45,0.18 -1.09,0.29 -1.92,0.35 -0.83,0.06 -1.93,0.1 -3.27,0.1 -1.44,0 -2.57,-0.05 -3.38,-0.14 -0.82,-0.1 -1.38,-0.32 -1.68,-0.67 -0.32,-0.37 -0.43,-0.88 -0.34,-1.54 0.1,-0.66 0.34,-1.52 0.71,-2.63l18.74 -53.98c0.18,-0.53 0.4,-0.96 0.66,-1.28 0.24,-0.34 0.64,-0.58 1.19,-0.75 0.56,-0.18 1.32,-0.29 2.29,-0.34 0.96,-0.05 2.25,-0.06 3.85,-0.06 1.85,0 3.32,0.02 4.41,0.06 1.11,0.05 1.96,0.16 2.57,0.34 0.61,0.18 1.04,0.43 1.32,0.77 0.26,0.35 0.5,0.82 0.67,1.41l18.8 53.93zm-27.91 -44.66l-0.05 0 -8.47 25.87 17.07 0 -8.55 -25.87zm69.83 44.1c0,0.93 -0.03,1.73 -0.11,2.37 -0.08,0.64 -0.21,1.17 -0.35,1.59 -0.16,0.43 -0.35,0.74 -0.59,0.91 -0.24,0.19 -0.51,0.29 -0.82,0.29l-27.86 0c-1.03,0 -1.89,-0.3 -2.6,-0.91 -0.71,-0.61 -1.06,-1.6 -1.06,-2.98l0 -55.25c0,-0.3 0.1,-0.59 0.3,-0.85 0.21,-0.24 0.55,-0.45 1.01,-0.61 0.46,-0.16 1.11,-0.27 1.91,-0.37 0.8,-0.1 1.8,-0.14 2.98,-0.14 1.22,0 2.23,0.05 3.02,0.14 0.77,0.1 1.41,0.21 1.88,0.37 0.46,0.16 0.8,0.37 1.01,0.61 0.21,0.26 0.3,0.55 0.3,0.85l0 48.94 19.11 0c0.31,0 0.59,0.08 0.82,0.26 0.24,0.18 0.43,0.45 0.59,0.85 0.16,0.39 0.27,0.9 0.35,1.56 0.08,0.64 0.11,1.43 0.11,2.37zm40.7 0c0,0.93 -0.03,1.73 -0.11,2.37 -0.08,0.64 -0.21,1.17 -0.35,1.59 -0.16,0.43 -0.35,0.74 -0.59,0.91 -0.24,0.19 -0.51,0.29 -0.82,0.29l-27.86 0c-1.03,0 -1.89,-0.3 -2.6,-0.91 -0.71,-0.61 -1.06,-1.6 -1.06,-2.98l0 -55.25c0,-0.3 0.1,-0.59 0.3,-0.85 0.21,-0.24 0.55,-0.45 1.01,-0.61 0.46,-0.16 1.11,-0.27 1.91,-0.37 0.8,-0.1 1.8,-0.14 2.98,-0.14 1.22,0 2.23,0.05 3.02,0.14 0.77,0.1 1.41,0.21 1.88,0.37 0.46,0.16 0.8,0.37 1.01,0.61 0.21,0.26 0.3,0.55 0.3,0.85l0 48.94 19.11 0c0.31,0 0.59,0.08 0.82,0.26 0.24,0.18 0.43,0.45 0.59,0.85 0.16,0.39 0.27,0.9 0.35,1.56 0.08,0.64 0.11,1.43 0.11,2.37z"/>
   <g style="clip-path:url(#id1)">
    <image x="2016.05" y="1326.86" width="1142.96" height="120.31" xlink:href="login_Images\login_ImgID2.jpg"/>
   </g>
   <g style="clip-path:url(#id2)">
    <image x="2011.74" y="1539.48" width="1144.47" height="125.58" xlink:href="login_Images\login_ImgID3.jpg"/>
   </g>
  </g>
 </g>
</svg>
